<svg width="24" height="24" viewBox="0 0 24 24" fill="none" xmlns="http://www.w3.org/2000/svg">
<path fill-rule="evenodd" clip-rule="evenodd" d="M12 2.75C11.4033 2.75 10.831 2.98705 10.409 3.40901C9.98709 3.83097 9.75003 4.40326 9.75003 5V5.26C10.307 5.25 10.918 5.25 11.59 5.25H12.411C13.081 5.25 13.693 5.25 14.251 5.26V5C14.251 4.70444 14.1928 4.41178 14.0797 4.13873C13.9665 3.86568 13.8007 3.6176 13.5917 3.40866C13.3826 3.19971 13.1345 3.034 12.8614 2.92098C12.5883 2.80797 12.2956 2.74987 12 2.75ZM15.75 5.328V5C15.75 4.00544 15.3549 3.05161 14.6517 2.34835C13.9484 1.64509 12.9946 1.25 12 1.25C11.0055 1.25 10.0516 1.64509 9.34838 2.34835C8.64512 3.05161 8.25003 4.00544 8.25003 5V5.328C8.10703 5.34 7.97003 5.354 7.83603 5.371C6.82603 5.496 5.99403 5.758 5.28603 6.345C4.57903 6.932 4.16803 7.702 3.85903 8.672C3.55903 9.612 3.33303 10.819 3.04903 12.338L3.02803 12.448C2.62603 14.591 2.31003 16.28 2.25103 17.611C2.19103 18.976 2.39503 20.106 3.16503 21.033C3.93503 21.961 5.00803 22.369 6.36003 22.562C7.68003 22.75 9.39703 22.75 11.578 22.75H12.423C14.603 22.75 16.321 22.75 17.64 22.562C18.992 22.369 20.066 21.961 20.836 21.033C21.606 20.106 21.808 18.976 21.749 17.611C21.691 16.28 21.374 14.591 20.972 12.448L20.952 12.338C20.667 10.819 20.44 9.611 20.142 8.672C19.832 7.702 19.422 6.932 18.714 6.345C18.007 5.758 17.174 5.495 16.164 5.371C16.0263 5.35411 15.8883 5.33977 15.75 5.328ZM8.02003 6.86C7.16503 6.965 6.64803 7.164 6.24403 7.5C5.84103 7.834 5.55003 8.305 5.28803 9.127C5.02103 9.967 4.81003 11.085 4.51403 12.664C4.09803 14.881 3.80303 16.464 3.75003 17.677C3.69803 18.867 3.89003 19.557 4.31903 20.076C4.74903 20.593 5.39203 20.908 6.57203 21.076C7.77203 21.248 9.38403 21.25 11.639 21.25H12.361C14.616 21.25 16.227 21.248 17.428 21.077C18.608 20.908 19.251 20.593 19.681 20.076C20.111 19.558 20.302 18.868 20.251 17.676C20.197 16.465 19.902 14.881 19.486 12.664C19.19 11.084 18.98 9.968 18.712 9.127C18.45 8.305 18.16 7.834 17.756 7.499C17.352 7.164 16.836 6.965 15.98 6.859C15.104 6.751 13.967 6.75 12.36 6.75H11.64C10.033 6.75 8.89603 6.751 8.02003 6.86Z" fill="white"/>
</svg>
